<svg width="122" height="43" viewBox="0 0 122 43" fill="none" xmlns="http://www.w3.org/2000/svg">
<path d="M29.2932 35.2894H14.7049L12.4875 42H0.466824L15.4635 0.861172H28.6513L43.5897 42H31.5106L29.2932 35.2894ZM26.4339 26.5365L21.9991 13.232L17.6226 26.5365H26.4339ZM62.8393 42.4085C58.0543 42.4085 54.1252 41.2803 51.052 39.024C47.9787 36.7288 46.3254 33.461 46.092 29.2207H58.2878C58.4045 30.6601 58.8324 31.7104 59.5715 32.3718C60.3107 33.0331 61.2638 33.3638 62.4308 33.3638C63.4812 33.3638 64.337 33.1109 64.9983 32.6052C65.6986 32.0605 66.0487 31.3214 66.0487 30.3878C66.0487 29.1818 65.4846 28.2482 64.3565 27.5868C63.2283 26.9255 61.3999 26.1864 58.8713 25.3694C56.187 24.4747 54.0085 23.6188 52.3358 22.8019C50.7019 21.946 49.2625 20.7206 48.0176 19.1256C46.8117 17.4918 46.2087 15.3716 46.2087 12.7652C46.2087 10.1198 46.87 7.86353 48.1927 5.99623C49.5154 4.09004 51.3438 2.65066 53.6779 1.67811C56.012 0.705565 58.6573 0.219291 61.6139 0.219291C66.3988 0.219291 70.2112 1.34745 73.051 3.60376C75.9298 5.82117 77.4664 8.95278 77.6609 12.9986H65.2318C65.1929 11.7537 64.8038 10.8201 64.0647 10.1976C63.3645 9.57521 62.4503 9.264 61.3221 9.264C60.4663 9.264 59.766 9.51686 59.2214 10.0226C58.6768 10.5283 58.4045 11.248 58.4045 12.1816C58.4045 12.9597 58.6962 13.6405 59.2798 14.224C59.9022 14.7686 60.6608 15.2549 61.5555 15.6828C62.4503 16.0718 63.7729 16.5776 65.5235 17.2C68.1299 18.0947 70.2696 18.9895 71.9423 19.8842C73.654 20.7401 75.1129 21.9655 76.3188 23.5605C77.5637 25.1165 78.1861 27.1005 78.1861 29.5125C78.1861 31.9633 77.5637 34.1613 76.3188 36.1064C75.1129 38.0515 73.3428 39.5881 71.0087 40.7162C68.7135 41.8444 65.9903 42.4085 62.8393 42.4085ZM99.7835 0.861172C104.102 0.861172 107.875 1.73647 111.104 3.48706C114.372 5.19874 116.881 7.61066 118.632 10.7228C120.382 13.835 121.257 17.3945 121.257 21.4014C121.257 25.3694 120.363 28.9095 118.573 32.0216C116.823 35.1338 114.313 37.5846 111.046 39.3741C107.817 41.1247 104.063 42 99.7835 42H83.5031V0.861172H99.7835ZM98.9082 31.9049C102.254 31.9049 104.88 30.9907 106.786 29.1624C108.692 27.334 109.645 24.747 109.645 21.4014C109.645 18.0169 108.692 15.4105 106.786 13.5821C104.88 11.7148 102.254 10.7812 98.9082 10.7812H94.9402V31.9049H98.9082Z" fill="black"/>
</svg>
