<svg width="427" height="35" viewBox="0 0 427 35" fill="none" xmlns="http://www.w3.org/2000/svg">
<path d="M0.25 -2.38419e-06H22.65L28.65 6V29L22.65 35H0.25V-2.38419e-06ZM19.3 29.2L21.85 26.65V8.35L19.3 5.8H7.05V29.2H19.3ZM39.9238 -2.38419e-06H46.7238V35H39.9238V-2.38419e-06ZM57.9922 29.25V5.75L63.7422 -2.38419e-06H81.1422L86.7922 5.65V11H79.9922V8.15L77.6422 5.8H67.3422L64.7922 8.35V26.65L67.3422 29.2H77.7422L80.1922 26.75V21.3H72.6922V15.5H86.7922V29.25L81.0422 35H63.7422L57.9922 29.25ZM97.5313 -2.38419e-06H104.331V35H97.5313V-2.38419e-06ZM124.05 5.75H113.6V-2.38419e-06H141.3V5.75H130.85V35H124.05V5.75ZM155.607 -2.38419e-06H161.807L174.607 35H167.707L164.857 27.25H152.557L149.707 35H142.807L155.607 -2.38419e-06ZM163.357 21.65L158.707 8.35H158.607L154.107 21.65H163.357ZM183.131 -2.38419e-06H189.931V29.25H207.431V35H183.131V-2.38419e-06ZM234.281 29.25V5.75L240.031 -2.38419e-06H257.131L262.781 5.65V11H255.981V8.15L253.631 5.8H243.631L241.081 8.35V26.65L243.631 29.2H253.631L255.981 26.85V24H262.781V29.35L257.131 35H240.031L234.281 29.25ZM272.545 -2.38419e-06H279.345V14.65H294.145V-2.38419e-06H300.945V35H294.145V20.45H279.345V35H272.545V-2.38419e-06ZM312.707 -2.38419e-06H319.507V35H312.707V-2.38419e-06ZM331.275 -2.38419e-06H356.575V5.75H338.075V14.6H355.125V20.25H338.075V29.25H356.575V35H331.275V-2.38419e-06ZM366.598 -2.38419e-06H391.398V5.75H373.398V15.45H388.998V21.2H373.398V35H366.598V-2.38419e-06ZM399.168 29.6V24.6H405.868V27.55L407.518 29.2H417.868L419.568 27.5V21.7L417.918 20.05H404.668L399.268 14.65V5.4L404.668 -2.38419e-06H420.468L425.868 5.4V10.45H419.168V7.45L417.518 5.8H407.618L405.968 7.45V12.6L407.618 14.25H420.868L426.268 19.65V29.5L420.768 35H404.568L399.168 29.6Z" fill="white"/>
</svg>
