<svg width="618" height="412" viewBox="0 0 618 412" fill="none" xmlns="http://www.w3.org/2000/svg">
<path d="M314 360L34 360" stroke="url(#paint0_linear_145_9929)" stroke-width="3"/>
<path d="M6.07913 12.5968H17.9009L25.2356 55.2242H25.5807L37.5751 12.5968H46.3767L58.1122 55.2242H58.4573L65.792 12.5968H77.6137L65.1017 73H54.1428L42.1485 30.5452H41.8033L29.5501 73H18.5912L6.07913 12.5968ZM85.3718 12.5968H129.035V22.5202H97.1072V37.7936H126.532V47.5444H97.1072V63.0766H129.035V73H85.3718V12.5968ZM161.213 12.5968H199.094L207.723 21.2259V38.1387L204.272 41.6766L210.398 47.8895V63.6807L201.079 73H161.213V12.5968ZM193.054 37.8799L196.16 34.7734V25.4541L193.14 22.4339H172.689V37.8799H193.054ZM195.125 63.1629L198.835 59.4524V50.996L195.125 47.2855H172.689V63.1629H195.125ZM219.021 62.6452V12.5968H230.756V58.5895L235.157 62.9903H252.07L256.471 58.5895V12.5968H268.206V62.6452L257.851 73H229.375L219.021 62.6452ZM279.872 12.5968H291.607V73H279.872V12.5968ZM303.288 12.5968H315.024V63.0766H345.225V73H303.288V12.5968ZM351.658 12.5968H390.316L400.671 22.9517V62.6452L390.316 73H351.658V12.5968ZM384.535 62.9903L388.935 58.5895V27.0073L384.535 22.6065H363.394V62.9903H384.535Z" fill="white"/>
<path d="M3.45161 158.894V149.057L50.3935 129.642V140.86L17.4306 153.717V154.235L50.3935 167.782V179L3.45161 158.894ZM57.7504 169.077V128.52L67.6738 118.597H97.1851L106.936 128.348V137.581H95.2004V132.662L91.1447 128.606H73.8867L69.4859 133.007V164.59L73.8867 168.99H91.1447L95.2004 164.935V160.016H106.936V169.249L97.1851 179H67.6738L57.7504 169.077ZM114.294 169.077V128.52L124.217 118.597H155.282L165.205 128.52V169.077L155.282 179H124.217L114.294 169.077ZM149.069 168.99L153.47 164.59V133.007L149.069 128.606H130.43L126.03 133.007V164.59L130.43 168.99H149.069ZM175.577 118.597H214.235L224.59 128.952V168.645L214.235 179H175.577V118.597ZM208.454 168.99L212.854 164.59V133.007L208.454 128.606H187.313V168.99H208.454ZM234.986 118.597H278.649V128.52H246.721V143.794H276.146V153.544H246.721V169.077H278.649V179H234.986V118.597ZM315.015 118.597H326.751L293.443 179H281.707L315.015 118.597ZM330.242 167.782L363.205 154.235V153.717L330.242 140.86V129.642L377.184 149.057V158.894L330.242 179V167.782Z" fill="#0042FF"/>
<path d="M408.923 118.597H420.745L428.079 161.224H428.424L440.419 118.597H449.22L460.956 161.224H461.301L468.636 118.597H480.457L467.945 179H456.987L444.992 136.545H444.647L432.394 179H421.435L408.923 118.597ZM488.647 118.597H500.382V179H488.647V118.597ZM525.783 128.52H507.749V118.597H555.554V128.52H537.519V179H525.783V128.52ZM562.455 118.597H574.191V143.88H599.733V118.597H611.468V179H599.733V153.89H574.191V179H562.455V118.597Z" fill="white"/>
<path d="M252.495 240.59H253.279V239.805H252.495V240.59ZM234.46 240.59H233.676V241.374H234.46V240.59ZM234.46 230.666V229.882H233.676V230.666H234.46ZM282.265 230.666H283.049V229.882H282.265V230.666ZM282.265 240.59V241.374H283.049V240.59H282.265ZM264.23 240.59V239.805H263.446V240.59H264.23ZM264.23 291.069V291.854H265.015V291.069H264.23ZM252.495 291.069H251.71V291.854H252.495V291.069ZM252.495 239.805H234.46V241.374H252.495V239.805ZM235.245 240.59V230.666H233.676V240.59H235.245ZM234.46 231.451H282.265V229.882H234.46V231.451ZM281.48 230.666V240.59H283.049V230.666H281.48ZM282.265 239.805H264.23V241.374H282.265V239.805ZM263.446 240.59V291.069H265.015V240.59H263.446ZM264.23 290.285H252.495V291.854H264.23V290.285ZM253.279 291.069V240.59H251.71V291.069H253.279ZM336.626 271.05H337.411V270.746L337.206 270.522L336.626 271.05ZM336.626 291.069V291.854H337.411V291.069H336.626ZM324.891 291.069H324.106V291.854H324.891V291.069ZM324.891 273.725H325.675V273.425L325.475 273.202L324.891 273.725ZM319.714 267.944L320.298 267.42L320.064 267.159H319.714V267.944ZM300.902 267.944V267.159H300.118V267.944H300.902ZM300.902 291.069V291.854H301.687V291.069H300.902ZM289.167 291.069H288.382V291.854H289.167V291.069ZM289.167 230.666V229.882H288.382V230.666H289.167ZM327.048 230.666L327.605 230.114L327.375 229.882H327.048V230.666ZM336.281 239.986H337.066V239.663L336.839 239.434L336.281 239.986ZM336.281 258.279L336.84 258.83L337.066 258.601V258.279H336.281ZM330.413 264.233L329.855 263.683L329.333 264.212L329.834 264.762L330.413 264.233ZM300.902 258.279H300.118V259.064H300.902V258.279ZM321.698 258.279V259.064H322.023L322.253 258.834L321.698 258.279ZM324.718 255.259L325.273 255.814L325.503 255.584V255.259H324.718ZM324.718 243.524H325.503V243.199L325.273 242.969L324.718 243.524ZM321.698 240.503L322.253 239.949L322.023 239.719H321.698V240.503ZM300.902 240.503V239.719H300.118V240.503H300.902ZM335.842 271.05V291.069H337.411V271.05H335.842ZM336.626 290.285H324.891V291.854H336.626V290.285ZM325.675 291.069V273.725H324.106V291.069H325.675ZM325.475 273.202L320.298 267.42L319.129 268.467L324.307 274.248L325.475 273.202ZM319.714 267.159H300.902V268.728H319.714V267.159ZM300.118 267.944V291.069H301.687V267.944H300.118ZM300.902 290.285H289.167V291.854H300.902V290.285ZM289.951 291.069V230.666H288.382V291.069H289.951ZM289.167 231.451H327.048V229.882H289.167V231.451ZM326.491 231.218L335.724 240.538L336.839 239.434L327.605 230.114L326.491 231.218ZM335.497 239.986V258.279H337.066V239.986H335.497ZM335.723 257.729L329.855 263.683L330.972 264.784L336.84 258.83L335.723 257.729ZM329.834 264.762L336.047 271.579L337.206 270.522L330.993 263.705L329.834 264.762ZM300.902 259.064H321.698V257.495H300.902V259.064ZM322.253 258.834L325.273 255.814L324.164 254.704L321.143 257.724L322.253 258.834ZM325.503 255.259V243.524H323.934V255.259H325.503ZM325.273 242.969L322.253 239.949L321.143 241.058L324.164 244.078L325.273 242.969ZM321.698 239.719H300.902V241.288H321.698V239.719ZM300.118 240.503V258.279H301.687V240.503H300.118ZM364.309 230.666V229.882H363.76L363.572 230.397L364.309 230.666ZM375.009 230.666L375.745 230.397L375.557 229.882H375.009V230.666ZM397.099 291.069V291.854H398.221L397.836 290.8L397.099 291.069ZM385.191 291.069L384.455 291.34L384.644 291.854H385.191V291.069ZM380.272 277.694L381.009 277.424L380.82 276.91H380.272V277.694ZM359.045 277.694V276.91H358.498L358.309 277.424L359.045 277.694ZM354.126 291.069V291.854H354.674L354.863 291.34L354.126 291.069ZM342.218 291.069L341.482 290.8L341.096 291.854H342.218V291.069ZM377.684 268.03V268.814H378.789L378.424 267.771L377.684 268.03ZM369.659 245.077L370.399 244.818L370.215 244.292H369.659V245.077ZM369.486 245.077V244.292H368.923L368.743 244.825L369.486 245.077ZM361.72 268.03L360.977 267.779L360.626 268.814H361.72V268.03ZM364.309 231.451H375.009V229.882H364.309V231.451ZM374.272 230.936L396.362 291.339L397.836 290.8L375.745 230.397L374.272 230.936ZM397.099 290.285H385.191V291.854H397.099V290.285ZM385.927 290.799L381.009 277.424L379.536 277.965L384.455 291.34L385.927 290.799ZM380.272 276.91H359.045V278.479H380.272V276.91ZM358.309 277.424L353.39 290.799L354.863 291.34L359.781 277.965L358.309 277.424ZM354.126 290.285H342.218V291.854H354.126V290.285ZM342.955 291.339L365.045 230.936L363.572 230.397L341.482 290.8L342.955 291.339ZM378.424 267.771L370.399 244.818L368.918 245.336L376.943 268.289L378.424 267.771ZM369.659 244.292H369.486V245.861H369.659V244.292ZM368.743 244.825L360.977 267.779L362.463 268.281L370.229 245.328L368.743 244.825ZM361.72 268.814H377.684V267.246H361.72V268.814ZM403.181 230.666V229.882H402.397V230.666H403.181ZM413.709 230.666L414.364 230.236L414.132 229.882H413.709V230.666ZM440.631 271.654L439.975 272.085L440.208 272.439H440.631V271.654ZM440.804 271.654V272.439H441.588V271.654H440.804ZM440.804 230.666V229.882H440.019V230.666H440.804ZM452.108 230.666H452.892V229.882H452.108V230.666ZM452.108 291.069V291.854H452.892V291.069H452.108ZM441.58 291.069L440.925 291.501L441.158 291.854H441.58V291.069ZM414.658 250.168L415.313 249.737L415.081 249.383H414.658V250.168ZM414.485 250.168V249.383H413.701V250.168H414.485ZM414.485 291.069V291.854H415.27V291.069H414.485ZM403.181 291.069H402.397V291.854H403.181V291.069ZM403.181 231.451H413.709V229.882H403.181V231.451ZM413.053 231.097L439.975 272.085L441.287 271.223L414.364 230.236L413.053 231.097ZM440.631 272.439H440.804V270.87H440.631V272.439ZM441.588 271.654V230.666H440.019V271.654H441.588ZM440.804 231.451H452.108V229.882H440.804V231.451ZM451.323 230.666V291.069H452.892V230.666H451.323ZM452.108 290.285H441.58V291.854H452.108V290.285ZM442.236 290.638L415.313 249.737L414.002 250.599L440.925 291.501L442.236 290.638ZM414.658 249.383H414.485V250.952H414.658V249.383ZM413.701 250.168V291.069H415.27V250.168H413.701ZM414.485 290.285H403.181V291.854H414.485V290.285ZM403.966 291.069V230.666H402.397V291.069H403.966ZM462.054 281.75H461.27V282.075L461.499 282.305L462.054 281.75ZM462.054 273.121V272.337H461.27V273.121H462.054ZM473.617 273.121H474.401V272.337H473.617V273.121ZM473.617 278.212H472.832V278.537L473.062 278.767L473.617 278.212ZM476.464 281.06L475.91 281.614L476.14 281.844H476.464V281.06ZM494.327 281.06V281.844H494.651L494.881 281.614L494.327 281.06ZM497.26 278.126L497.815 278.681L498.045 278.451V278.126H497.26ZM497.26 268.116H498.045V267.791L497.815 267.562L497.26 268.116ZM494.413 265.269L494.968 264.714L494.738 264.484H494.413V265.269ZM471.546 265.269L470.991 265.823L471.221 266.053H471.546V265.269ZM462.227 255.949H461.442V256.274L461.672 256.504L462.227 255.949ZM462.227 239.986L461.672 239.431L461.442 239.661V239.986H462.227ZM471.546 230.666V229.882H471.221L470.991 230.112L471.546 230.666ZM498.814 230.666L499.368 230.112L499.139 229.882H498.814V230.666ZM508.133 239.986H508.917V239.661L508.688 239.431L508.133 239.986ZM508.133 248.701V249.485H508.917V248.701H508.133ZM496.57 248.701H495.786V249.485H496.57V248.701ZM496.57 243.524H497.355V243.199L497.125 242.969L496.57 243.524ZM493.723 240.676L494.277 240.121L494.047 239.891H493.723V240.676ZM476.637 240.676V239.891H476.312L476.082 240.121L476.637 240.676ZM473.789 243.524L473.235 242.969L473.005 243.199V243.524H473.789ZM473.789 252.411H473.005V252.736L473.235 252.966L473.789 252.411ZM476.637 255.259L476.082 255.814L476.312 256.043H476.637V255.259ZM499.504 255.259L500.059 254.704L499.829 254.475H499.504V255.259ZM508.823 264.578H509.608V264.253L509.378 264.024L508.823 264.578ZM508.823 281.578L509.378 282.132L509.608 281.902V281.578H508.823ZM499.331 291.069V291.854H499.656L499.886 291.624L499.331 291.069ZM471.373 291.069L470.819 291.624L471.048 291.854H471.373V291.069ZM462.838 281.75V273.121H461.27V281.75H462.838ZM462.054 273.906H473.617V272.337H462.054V273.906ZM472.832 273.121V278.212H474.401V273.121H472.832ZM473.062 278.767L475.91 281.614L477.019 280.505L474.172 277.658L473.062 278.767ZM476.464 281.844H494.327V280.275H476.464V281.844ZM494.881 281.614L497.815 278.681L496.706 277.571L493.772 280.505L494.881 281.614ZM498.045 278.126V268.116H496.476V278.126H498.045ZM497.815 267.562L494.968 264.714L493.858 265.823L496.706 268.671L497.815 267.562ZM494.413 264.484H471.546V266.053H494.413V264.484ZM472.101 264.714L462.781 255.395L461.672 256.504L470.991 265.823L472.101 264.714ZM463.011 255.949V239.986H461.442V255.949H463.011ZM462.781 240.54L472.101 231.221L470.991 230.112L461.672 239.431L462.781 240.54ZM471.546 231.451H498.814V229.882H471.546V231.451ZM498.259 231.221L507.578 240.54L508.688 239.431L499.368 230.112L498.259 231.221ZM507.349 239.986V248.701H508.917V239.986H507.349ZM508.133 247.916H496.57V249.485H508.133V247.916ZM497.355 248.701V243.524H495.786V248.701H497.355ZM497.125 242.969L494.277 240.121L493.168 241.231L496.015 244.078L497.125 242.969ZM493.723 239.891H476.637V241.46H493.723V239.891ZM476.082 240.121L473.235 242.969L474.344 244.078L477.192 241.231L476.082 240.121ZM473.005 243.524V252.411H474.574V243.524H473.005ZM473.235 252.966L476.082 255.814L477.192 254.704L474.344 251.857L473.235 252.966ZM476.637 256.043H499.504V254.475H476.637V256.043ZM498.949 255.814L508.269 265.133L509.378 264.024L500.059 254.704L498.949 255.814ZM508.039 264.578V281.578H509.608V264.578H508.039ZM508.269 281.023L498.777 290.515L499.886 291.624L509.378 282.132L508.269 281.023ZM499.331 290.285H471.373V291.854H499.331V290.285ZM471.928 290.515L462.609 281.195L461.499 282.305L470.819 291.624L471.928 290.515ZM518.291 230.666V229.882H517.507V230.666H518.291ZM556.172 230.666L556.73 230.114L556.499 229.882H556.172V230.666ZM565.405 239.986H566.19V239.663L565.963 239.434L565.405 239.986ZM565.405 261.127L565.963 261.679L566.19 261.45V261.127H565.405ZM556.086 270.532V271.317H556.413L556.643 271.085L556.086 270.532ZM530.026 270.532V269.748H529.242V270.532H530.026ZM530.026 291.069V291.854H530.811V291.069H530.026ZM518.291 291.069H517.507V291.854H518.291V291.069ZM550.822 260.695V261.48H551.147L551.377 261.25L550.822 260.695ZM553.843 257.675L554.397 258.23L554.627 258V257.675H553.843ZM553.843 243.524H554.627V243.199L554.397 242.969L553.843 243.524ZM550.822 240.503L551.377 239.949L551.147 239.719H550.822V240.503ZM530.026 240.503V239.719H529.242V240.503H530.026ZM530.026 260.695H529.242V261.48H530.026V260.695ZM518.291 231.451H556.172V229.882H518.291V231.451ZM555.615 231.218L564.848 240.538L565.963 239.434L556.73 230.114L555.615 231.218ZM564.621 239.986V261.127H566.19V239.986H564.621ZM564.848 260.575L555.529 269.98L556.643 271.085L565.963 261.679L564.848 260.575ZM556.086 269.748H530.026V271.317H556.086V269.748ZM529.242 270.532V291.069H530.811V270.532H529.242ZM530.026 290.285H518.291V291.854H530.026V290.285ZM519.075 291.069V230.666H517.507V291.069H519.075ZM551.377 261.25L554.397 258.23L553.288 257.12L550.268 260.141L551.377 261.25ZM554.627 257.675V243.524H553.058V257.675H554.627ZM554.397 242.969L551.377 239.949L550.268 241.058L553.288 244.078L554.397 242.969ZM550.822 239.719H530.026V241.288H550.822V239.719ZM529.242 240.503V260.695H530.811V240.503H529.242ZM530.026 261.48H550.822V259.911H530.026V261.48ZM584.501 230.666V229.882H583.952L583.764 230.397L584.501 230.666ZM595.201 230.666L595.937 230.397L595.749 229.882H595.201V230.666ZM617.291 291.069V291.854H618.413L618.028 290.8L617.291 291.069ZM605.383 291.069L604.647 291.34L604.835 291.854H605.383V291.069ZM600.464 277.694L601.2 277.424L601.012 276.91H600.464V277.694ZM579.237 277.694V276.91H578.689L578.501 277.424L579.237 277.694ZM574.318 291.069V291.854H574.866L575.055 291.34L574.318 291.069ZM562.41 291.069L561.673 290.8L561.288 291.854H562.41V291.069ZM597.875 268.03V268.814H598.981L598.616 267.771L597.875 268.03ZM589.851 245.077L590.591 244.818L590.407 244.292H589.851V245.077ZM589.678 245.077V244.292H589.115L588.935 244.825L589.678 245.077ZM581.912 268.03L581.169 267.779L580.818 268.814H581.912V268.03ZM584.501 231.451H595.201V229.882H584.501V231.451ZM594.464 230.936L616.554 291.339L618.028 290.8L595.937 230.397L594.464 230.936ZM617.291 290.285H605.383V291.854H617.291V290.285ZM606.119 290.799L601.2 277.424L599.728 277.965L604.647 291.34L606.119 290.799ZM600.464 276.91H579.237V278.479H600.464V276.91ZM578.501 277.424L573.582 290.799L575.055 291.34L579.973 277.965L578.501 277.424ZM574.318 290.285H562.41V291.854H574.318V290.285ZM563.147 291.339L585.237 230.936L583.764 230.397L561.673 290.8L563.147 291.339ZM598.616 267.771L590.591 244.818L589.11 245.336L597.135 268.289L598.616 267.771ZM589.851 244.292H589.678V245.861H589.851V244.292ZM588.935 244.825L581.169 267.779L582.655 268.281L590.421 245.328L588.935 244.825ZM581.912 268.814H597.875V267.246H581.912V268.814ZM379.097 371.05H379.882V370.746L379.677 370.522L379.097 371.05ZM379.097 391.069V391.854H379.882V391.069H379.097ZM367.362 391.069H366.577V391.854H367.362V391.069ZM367.362 373.725H368.146V373.425L367.946 373.202L367.362 373.725ZM362.185 367.944L362.769 367.42L362.535 367.159H362.185V367.944ZM343.373 367.944V367.159H342.589V367.944H343.373ZM343.373 391.069V391.854H344.158V391.069H343.373ZM331.638 391.069H330.853V391.854H331.638V391.069ZM331.638 330.666V329.882H330.853V330.666H331.638ZM369.519 330.666L370.076 330.114L369.846 329.882H369.519V330.666ZM378.752 339.986H379.537V339.663L379.31 339.434L378.752 339.986ZM378.752 358.279L379.311 358.83L379.537 358.601V358.279H378.752ZM372.885 364.233L372.326 363.683L371.804 364.212L372.305 364.762L372.885 364.233ZM343.373 358.279H342.589V359.064H343.373V358.279ZM364.169 358.279V359.064H364.494L364.724 358.834L364.169 358.279ZM367.189 355.259L367.744 355.814L367.974 355.584V355.259H367.189ZM367.189 343.524H367.974V343.199L367.744 342.969L367.189 343.524ZM364.169 340.503L364.724 339.949L364.494 339.719H364.169V340.503ZM343.373 340.503V339.719H342.589V340.503H343.373ZM378.313 371.05V391.069H379.882V371.05H378.313ZM379.097 390.285H367.362V391.854H379.097V390.285ZM368.146 391.069V373.725H366.577V391.069H368.146ZM367.946 373.202L362.769 367.42L361.6 368.467L366.778 374.248L367.946 373.202ZM362.185 367.159H343.373V368.728H362.185V367.159ZM342.589 367.944V391.069H344.158V367.944H342.589ZM343.373 390.285H331.638V391.854H343.373V390.285ZM332.422 391.069V330.666H330.853V391.069H332.422ZM331.638 331.451H369.519V329.882H331.638V331.451ZM368.962 331.218L378.195 340.538L379.31 339.434L370.076 330.114L368.962 331.218ZM377.968 339.986V358.279H379.537V339.986H377.968ZM378.194 357.729L372.326 363.683L373.443 364.784L379.311 358.83L378.194 357.729ZM372.305 364.762L378.518 371.579L379.677 370.522L373.464 363.705L372.305 364.762ZM343.373 359.064H364.169V357.495H343.373V359.064ZM364.724 358.834L367.744 355.814L366.635 354.704L363.615 357.724L364.724 358.834ZM367.974 355.259V343.524H366.405V355.259H367.974ZM367.744 342.969L364.724 339.949L363.615 341.058L366.635 344.078L367.744 342.969ZM364.169 339.719H343.373V341.288H364.169V339.719ZM342.589 340.503V358.279H344.158V340.503H342.589ZM389.867 330.666V329.882H389.082V330.666H389.867ZM433.53 330.666H434.314V329.882H433.53V330.666ZM433.53 340.59V341.374H434.314V340.59H433.53ZM401.602 340.59V339.805H400.818V340.59H401.602ZM401.602 355.863H400.818V356.647H401.602V355.863ZM431.027 355.863H431.812V355.079H431.027V355.863ZM431.027 365.614V366.398H431.812V365.614H431.027ZM401.602 365.614V364.829H400.818V365.614H401.602ZM401.602 381.146H400.818V381.931H401.602V381.146ZM433.53 381.146H434.314V380.362H433.53V381.146ZM433.53 391.069V391.854H434.314V391.069H433.53ZM389.867 391.069H389.082V391.854H389.867V391.069ZM389.867 331.451H433.53V329.882H389.867V331.451ZM432.745 330.666V340.59H434.314V330.666H432.745ZM433.53 339.805H401.602V341.374H433.53V339.805ZM400.818 340.59V355.863H402.387V340.59H400.818ZM401.602 356.647H431.027V355.079H401.602V356.647ZM430.243 355.863V365.614H431.812V355.863H430.243ZM431.027 364.829H401.602V366.398H431.027V364.829ZM400.818 365.614V381.146H402.387V365.614H400.818ZM401.602 381.931H433.53V380.362H401.602V381.931ZM432.745 381.146V391.069H434.314V381.146H432.745ZM433.53 390.285H389.867V391.854H433.53V390.285ZM390.651 391.069V330.666H389.082V391.069H390.651ZM442.197 330.666V329.882H441.413V330.666H442.197ZM452.725 330.666L453.38 330.236L453.148 329.882H452.725V330.666ZM479.647 371.654L478.991 372.085L479.224 372.439H479.647V371.654ZM479.82 371.654V372.439H480.604V371.654H479.82ZM479.82 330.666V329.882H479.035V330.666H479.82ZM491.124 330.666H491.908V329.882H491.124V330.666ZM491.124 391.069V391.854H491.908V391.069H491.124ZM480.596 391.069L479.941 391.501L480.173 391.854H480.596V391.069ZM453.674 350.168L454.329 349.737L454.097 349.383H453.674V350.168ZM453.501 350.168V349.383H452.717V350.168H453.501ZM453.501 391.069V391.854H454.286V391.069H453.501ZM442.197 391.069H441.413V391.854H442.197V391.069ZM442.197 331.451H452.725V329.882H442.197V331.451ZM452.069 331.097L478.991 372.085L480.303 371.223L453.38 330.236L452.069 331.097ZM479.647 372.439H479.82V370.87H479.647V372.439ZM480.604 371.654V330.666H479.035V371.654H480.604ZM479.82 331.451H491.124V329.882H479.82V331.451ZM490.339 330.666V391.069H491.908V330.666H490.339ZM491.124 390.285H480.596V391.854H491.124V390.285ZM481.252 390.638L454.329 349.737L453.018 350.599L479.941 391.501L481.252 390.638ZM453.674 349.383H453.501V350.952H453.674V349.383ZM452.717 350.168V391.069H454.286V350.168H452.717ZM453.501 390.285H442.197V391.854H453.501V390.285ZM442.982 391.069V330.666H441.413V391.069H442.982ZM501.501 381.146H500.717V381.471L500.947 381.701L501.501 381.146ZM501.501 340.59L500.947 340.035L500.717 340.265V340.59H501.501ZM511.425 330.666V329.882H511.1L510.87 330.112L511.425 330.666ZM540.936 330.666L541.491 330.112L541.261 329.882H540.936V330.666ZM550.687 340.417H551.471V340.092L551.242 339.862L550.687 340.417ZM550.687 349.65V350.435H551.471V349.65H550.687ZM538.951 349.65H538.167V350.435H538.951V349.65ZM538.951 344.732H539.736V344.407L539.506 344.177L538.951 344.732ZM534.896 340.676L535.45 340.121L535.221 339.891H534.896V340.676ZM517.638 340.676V339.891H517.313L517.083 340.121L517.638 340.676ZM513.237 345.077L512.682 344.522L512.452 344.752V345.077H513.237ZM513.237 376.659H512.452V376.984L512.682 377.214L513.237 376.659ZM517.638 381.06L517.083 381.614L517.313 381.844H517.638V381.06ZM534.896 381.06V381.844H535.221L535.45 381.614L534.896 381.06ZM538.951 377.004L539.506 377.559L539.736 377.329V377.004H538.951ZM538.951 372.086V371.301H538.167V372.086H538.951ZM550.687 372.086H551.471V371.301H550.687V372.086ZM550.687 381.319L551.242 381.873L551.471 381.644V381.319H550.687ZM540.936 391.069V391.854H541.261L541.491 391.624L540.936 391.069ZM511.425 391.069L510.87 391.624L511.1 391.854H511.425V391.069ZM502.286 381.146V340.59H500.717V381.146H502.286ZM502.056 341.144L511.98 331.221L510.87 330.112L500.947 340.035L502.056 341.144ZM511.425 331.451H540.936V329.882H511.425V331.451ZM540.381 331.221L550.132 340.972L551.242 339.862L541.491 330.112L540.381 331.221ZM549.902 340.417V349.65H551.471V340.417H549.902ZM550.687 348.866H538.951V350.435H550.687V348.866ZM539.736 349.65V344.732H538.167V349.65H539.736ZM539.506 344.177L535.45 340.121L534.341 341.231L538.397 345.286L539.506 344.177ZM534.896 339.891H517.638V341.46H534.896V339.891ZM517.083 340.121L512.682 344.522L513.792 345.631L518.192 341.231L517.083 340.121ZM512.452 345.077V376.659H514.021V345.077H512.452ZM512.682 377.214L517.083 381.614L518.192 380.505L513.792 376.104L512.682 377.214ZM517.638 381.844H534.896V380.275H517.638V381.844ZM535.45 381.614L539.506 377.559L538.397 376.449L534.341 380.505L535.45 381.614ZM539.736 377.004V372.086H538.167V377.004H539.736ZM538.951 372.87H550.687V371.301H538.951V372.87ZM549.902 372.086V381.319H551.471V372.086H549.902ZM550.132 380.764L540.381 390.515L541.491 391.624L551.242 381.873L550.132 380.764ZM540.936 390.285H511.425V391.854H540.936V390.285ZM511.98 390.515L502.056 380.591L500.947 381.701L510.87 391.624L511.98 390.515ZM573.1 366.39H573.885V366.173L573.772 365.986L573.1 366.39ZM551.614 330.666V329.882H550.227L550.942 331.071L551.614 330.666ZM564.471 330.666L565.149 330.272L564.922 329.882H564.471V330.666ZM578.882 355.432L578.204 355.826L578.43 356.216H578.882V355.432ZM579.054 355.432V356.216H579.505L579.732 355.826L579.054 355.432ZM593.465 330.666V329.882H593.013L592.787 330.272L593.465 330.666ZM606.322 330.666L606.994 331.071L607.709 329.882H606.322V330.666ZM584.836 366.39L584.163 365.986L584.051 366.173V366.39H584.836ZM584.836 391.069V391.854H585.62V391.069H584.836ZM573.1 391.069H572.316V391.854H573.1V391.069ZM573.772 365.986L552.286 330.262L550.942 331.071L572.428 366.795L573.772 365.986ZM551.614 331.451H564.471V329.882H551.614V331.451ZM563.793 331.061L578.204 355.826L579.56 355.037L565.149 330.272L563.793 331.061ZM578.882 356.216H579.054V354.647H578.882V356.216ZM579.732 355.826L594.143 331.061L592.787 330.272L578.376 355.037L579.732 355.826ZM593.465 331.451H606.322V329.882H593.465V331.451ZM605.65 330.262L584.163 365.986L585.508 366.795L606.994 331.071L605.65 330.262ZM584.051 366.39V391.069H585.62V366.39H584.051ZM584.836 390.285H573.1V391.854H584.836V390.285ZM573.885 391.069V366.39H572.316V391.069H573.885ZM600.654 387.359H599.87V387.684L600.1 387.914L600.654 387.359ZM600.654 381.836L600.1 381.282L599.87 381.511V381.836H600.654ZM604.365 378.126V377.341H604.04L603.81 377.571L604.365 378.126ZM610.664 378.126L611.231 377.584L611 377.341H610.664V378.126ZM614.288 381.923H615.073V381.608L614.856 381.381L614.288 381.923ZM614.288 387.273L614.856 387.814L615.073 387.587V387.273H614.288ZM610.664 391.069V391.854H611L611.231 391.611L610.664 391.069ZM604.365 391.069L603.81 391.624L604.04 391.854H604.365V391.069ZM601.439 387.359V381.836H599.87V387.359H601.439ZM601.209 382.391L604.92 378.681L603.81 377.571L600.1 381.282L601.209 382.391ZM604.365 378.91H610.664V377.341H604.365V378.91ZM610.097 378.668L613.721 382.464L614.856 381.381L611.231 377.584L610.097 378.668ZM613.504 381.923V387.273H615.073V381.923H613.504ZM613.721 386.731L610.097 390.528L611.231 391.611L614.856 387.814L613.721 386.731ZM610.664 390.285H604.365V391.854H610.664V390.285ZM604.92 390.515L601.209 386.804L600.1 387.914L603.81 391.624L604.92 390.515Z" fill="white"/>
<defs>
<linearGradient id="paint0_linear_145_9929" x1="26.5463" y1="356.757" x2="314" y2="357.081" gradientUnits="userSpaceOnUse">
<stop stop-color="#0042FF" stop-opacity="0"/>
<stop offset="0.912026" stop-color="#0042FF" stop-opacity="0.912026"/>
<stop offset="1" stop-color="#0042FF"/>
</linearGradient>
</defs>
</svg>
