<svg width="430" height="22" viewBox="0 0 430 22" fill="none" xmlns="http://www.w3.org/2000/svg">
<path d="M6.60298 21.2299C5.39618 21.2299 4.27559 20.9808 3.24119 20.4828C2.2068 19.9656 1.37353 19.2473 0.741401 18.3278L2.40793 16.3739C3.51895 17.9639 4.9173 18.7588 6.60298 18.7588C7.73315 18.7588 8.58557 18.414 9.16024 17.7244C9.75406 17.0348 10.051 16.0196 10.051 14.6787V3.38653H2.78146V0.886739H12.8956V14.535C12.8956 16.7571 12.3592 18.4332 11.2865 19.5633C10.2329 20.6744 8.67177 21.2299 6.60298 21.2299ZM32.8277 21.2299C30.1459 21.2299 28.0579 20.4636 26.5638 18.9312C25.0697 17.3988 24.3226 15.1959 24.3226 12.3226V0.886739H27.196V12.2076C27.196 16.5176 29.0828 18.6726 32.8564 18.6726C34.6953 18.6726 36.1033 18.1458 37.0802 17.0923C38.0571 16.0196 38.5456 14.3914 38.5456 12.2076V0.886739H41.3327V12.3226C41.3327 15.215 40.5856 17.4275 39.0915 18.9599C37.5974 20.4732 35.5094 21.2299 32.8277 21.2299ZM66.4173 21L62.0785 14.8224C61.5422 14.8607 61.1208 14.8798 60.8143 14.8798H55.8434V21H52.9701V0.886739H60.8143C63.4194 0.886739 65.4691 1.50929 66.9632 2.7544C68.4573 3.9995 69.2044 5.71392 69.2044 7.89765C69.2044 9.44924 68.8213 10.771 68.0551 11.8628C67.2888 12.9547 66.197 13.7496 64.7795 14.2477L69.5492 21H66.4173ZM60.7281 12.4375C62.5479 12.4375 63.9366 12.0448 64.8944 11.2594C65.8522 10.4741 66.3311 9.35346 66.3311 7.89765C66.3311 6.44183 65.8522 5.33081 64.8944 4.56459C63.9366 3.77922 62.5479 3.38653 60.7281 3.38653H55.8434V12.4375H60.7281ZM79.5932 0.886739H82.4666V21H79.5932V0.886739ZM94.2348 0.886739H102.711C104.837 0.886739 106.724 1.30816 108.372 2.151C110.019 2.99384 111.293 4.18148 112.193 5.71392C113.113 7.22721 113.572 8.97035 113.572 10.9434C113.572 12.9164 113.113 14.6691 112.193 16.2016C111.293 17.7148 110.019 18.8929 108.372 19.7357C106.724 20.5786 104.837 21 102.711 21H94.2348V0.886739ZM102.539 18.5002C104.167 18.5002 105.594 18.1841 106.82 17.552C108.065 16.9199 109.023 16.0387 109.693 14.9086C110.364 13.7592 110.699 12.4375 110.699 10.9434C110.699 9.44924 110.364 8.13709 109.693 7.00692C109.023 5.85759 108.065 4.96686 106.82 4.33473C105.594 3.7026 104.167 3.38653 102.539 3.38653H97.1082V18.5002H102.539ZM123.72 0.886739H126.593V21H123.72V0.886739ZM144.223 21.2299C142.71 21.2299 141.245 21 139.827 20.5403C138.429 20.0614 137.327 19.4484 136.523 18.7013L137.586 16.4601C138.352 17.1497 139.329 17.7148 140.517 18.1554C141.723 18.5768 142.959 18.7875 144.223 18.7875C145.89 18.7875 147.135 18.5098 147.959 17.9543C148.782 17.3796 149.194 16.623 149.194 15.6844C149.194 14.9948 148.964 14.4392 148.505 14.0178C148.064 13.5772 147.508 13.242 146.838 13.0122C146.187 12.7823 145.258 12.5237 144.051 12.2364C142.538 11.8724 141.312 11.5085 140.373 11.1445C139.454 10.7805 138.659 10.225 137.988 9.47797C137.337 8.71176 137.011 7.68694 137.011 6.40352C137.011 5.33081 137.289 4.36346 137.844 3.50146C138.419 2.63947 139.281 1.94987 140.43 1.43267C141.58 0.915473 143.007 0.656874 144.712 0.656874C145.899 0.656874 147.068 0.810118 148.217 1.1166C149.366 1.42309 150.353 1.86367 151.177 2.43833L150.228 4.73699C149.386 4.20064 148.485 3.79837 147.528 3.5302C146.57 3.24286 145.631 3.0992 144.712 3.0992C143.083 3.0992 141.858 3.39611 141.034 3.98993C140.229 4.58375 139.827 5.34997 139.827 6.28859C139.827 6.97818 140.057 7.54327 140.517 7.98385C140.976 8.40527 141.541 8.74049 142.212 8.98951C142.902 9.21938 143.831 9.4684 144.999 9.73657C146.512 10.1005 147.729 10.4645 148.648 10.8284C149.568 11.1924 150.353 11.7479 151.004 12.495C151.675 13.242 152.01 14.2477 152.01 15.512C152.01 16.5655 151.723 17.5329 151.148 18.414C150.573 19.276 149.702 19.9656 148.533 20.4828C147.365 20.9808 145.928 21.2299 144.223 21.2299ZM170.948 21.2299C168.937 21.2299 167.117 20.7893 165.489 19.9081C163.879 19.0078 162.615 17.7819 161.696 16.2303C160.776 14.6595 160.317 12.8972 160.317 10.9434C160.317 8.98951 160.776 7.23678 161.696 5.68519C162.615 4.11444 163.889 2.88849 165.517 2.00734C167.145 1.10703 168.965 0.656874 170.977 0.656874C172.547 0.656874 173.984 0.925051 175.287 1.4614C176.589 1.9786 177.7 2.7544 178.62 3.78879L176.752 5.59899C175.239 4.00908 173.352 3.21413 171.092 3.21413C169.597 3.21413 168.247 3.54935 167.04 4.21979C165.833 4.89024 164.885 5.81928 164.196 7.00692C163.525 8.1754 163.19 9.48755 163.19 10.9434C163.19 12.3992 163.525 13.7209 164.196 14.9086C164.885 16.077 165.833 16.9965 167.04 17.6669C168.247 18.3374 169.597 18.6726 171.092 18.6726C173.333 18.6726 175.22 17.8681 176.752 16.259L178.62 18.0692C177.7 19.1036 176.58 19.889 175.258 20.4253C173.955 20.9617 172.519 21.2299 170.948 21.2299ZM205.763 0.886739V21H202.889V12.0352H191.339V21H188.465V0.886739H191.339V9.53544H202.889V0.886739H205.763ZM232.126 18.5002V21H217.53V0.886739H231.724V3.38653H220.403V9.56417H230.488V12.0065H220.403V18.5002H232.126ZM273.286 0.886739V21H270.412V12.0352H258.862V21H255.988V0.886739H258.862V9.53544H270.412V0.886739H273.286ZM297.868 15.9717H287.179L284.966 21H282.007L291.115 0.886739H293.96L303.097 21H300.08L297.868 15.9717ZM296.862 13.673L292.523 3.81753L288.185 13.673H296.862ZM329.142 0.886739V21H326.785L314.717 6.00125V21H311.844V0.886739H314.2L326.268 15.8855V0.886739H329.142ZM340.908 0.886739H349.385C351.511 0.886739 353.398 1.30816 355.045 2.151C356.693 2.99384 357.966 4.18148 358.867 5.71392C359.786 7.22721 360.246 8.97035 360.246 10.9434C360.246 12.9164 359.786 14.6691 358.867 16.2016C357.966 17.7148 356.693 18.8929 355.045 19.7357C353.398 20.5786 351.511 21 349.385 21H340.908V0.886739ZM349.212 18.5002C350.841 18.5002 352.268 18.1841 353.494 17.552C354.739 16.9199 355.697 16.0387 356.367 14.9086C357.037 13.7592 357.373 12.4375 357.373 10.9434C357.373 9.44924 357.037 8.13709 356.367 7.00692C355.697 5.85759 354.739 4.96686 353.494 4.33473C352.268 3.7026 350.841 3.38653 349.212 3.38653H343.782V18.5002H349.212ZM372.559 21.2299C371.352 21.2299 370.231 20.9808 369.197 20.4828C368.163 19.9656 367.329 19.2473 366.697 18.3278L368.364 16.3739C369.475 17.9639 370.873 18.7588 372.559 18.7588C373.689 18.7588 374.541 18.414 375.116 17.7244C375.71 17.0348 376.007 16.0196 376.007 14.6787V3.38653H368.737V0.886739H378.851V14.535C378.851 16.7571 378.315 18.4332 377.242 19.5633C376.189 20.6744 374.628 21.2299 372.559 21.2299ZM405.047 18.5002V21H390.451V0.886739H404.645V3.38653H393.324V9.56417H403.41V12.0065H393.324V18.5002H405.047ZM421.308 21.2299C419.795 21.2299 418.329 21 416.912 20.5403C415.514 20.0614 414.412 19.4484 413.608 18.7013L414.671 16.4601C415.437 17.1497 416.414 17.7148 417.602 18.1554C418.808 18.5768 420.044 18.7875 421.308 18.7875C422.975 18.7875 424.22 18.5098 425.043 17.9543C425.867 17.3796 426.279 16.623 426.279 15.6844C426.279 14.9948 426.049 14.4392 425.589 14.0178C425.149 13.5772 424.593 13.242 423.923 13.0122C423.272 12.7823 422.342 12.5237 421.136 12.2364C419.622 11.8724 418.396 11.5085 417.458 11.1445C416.538 10.7805 415.743 10.225 415.073 9.47797C414.422 8.71176 414.096 7.68694 414.096 6.40352C414.096 5.33081 414.374 4.36346 414.929 3.50146C415.504 2.63947 416.366 1.94987 417.515 1.43267C418.665 0.915473 420.092 0.656874 421.797 0.656874C422.984 0.656874 424.153 0.810118 425.302 1.1166C426.451 1.42309 427.438 1.86367 428.262 2.43833L427.313 4.73699C426.471 4.20064 425.57 3.79837 424.612 3.5302C423.655 3.24286 422.716 3.0992 421.797 3.0992C420.168 3.0992 418.942 3.39611 418.119 3.98993C417.314 4.58375 416.912 5.34997 416.912 6.28859C416.912 6.97818 417.142 7.54327 417.602 7.98385C418.061 8.40527 418.626 8.74049 419.297 8.98951C419.986 9.21938 420.915 9.4684 422.084 9.73657C423.597 10.1005 424.814 10.4645 425.733 10.8284C426.652 11.1924 427.438 11.7479 428.089 12.495C428.76 13.242 429.095 14.2477 429.095 15.512C429.095 16.5655 428.807 17.5329 428.233 18.414C427.658 19.276 426.787 19.9656 425.618 20.4828C424.45 20.9808 423.013 21.2299 421.308 21.2299Z" fill="white"/>
</svg>
