<svg width="346" height="75" viewBox="0 0 346 75" fill="none" xmlns="http://www.w3.org/2000/svg">
<path d="M98.9765 51.5951C96.2608 51.5951 93.8989 51.2201 91.8908 50.47C89.8827 49.7199 88.3337 48.6622 87.2435 47.2967C86.1534 45.9312 85.6084 44.3637 85.6084 42.5943V42.3059C85.6084 41.9981 85.704 41.7481 85.8953 41.5558C86.0865 41.3635 86.3351 41.2673 86.6411 41.2673H93.6981C94.3866 41.2673 94.7308 41.3827 94.7308 41.6135V41.9597C94.7308 42.6905 95.1229 43.2963 95.907 43.7771C96.6911 44.2579 97.6951 44.4984 98.9191 44.4984C99.9901 44.4984 100.851 44.3156 101.501 43.9502C102.151 43.5848 102.476 43.0944 102.476 42.479C102.476 41.8635 102.132 41.4116 101.444 41.1231C100.755 40.8346 99.6649 40.5557 98.1732 40.2865C95.7635 39.8249 93.8128 39.2672 92.3211 38.6133C90.4087 37.8055 88.8691 36.7862 87.7025 35.5553C86.5359 34.3244 85.9526 32.6705 85.9526 30.5934C85.9526 27.5931 87.1097 25.2179 89.4237 23.4678C91.7378 21.7176 94.7882 20.8426 98.5748 20.8426C101.138 20.8426 103.385 21.2561 105.316 22.083C107.248 22.91 108.749 24.0736 109.82 25.5737C110.891 27.0739 111.427 28.8047 111.427 30.7665C111.427 30.9588 111.331 31.1223 111.14 31.2569C110.948 31.3915 110.7 31.4588 110.394 31.4588H103.566C102.878 31.4588 102.534 31.3434 102.534 31.1126V30.7665C102.534 30.0356 102.189 29.4394 101.501 28.9778C100.812 28.5163 99.8753 28.2855 98.6896 28.2855C97.6186 28.2855 96.7485 28.4682 96.0791 28.8336C95.4097 29.199 95.0751 29.7087 95.0751 30.3626C95.0751 31.0165 95.4384 31.4877 96.1651 31.7762C96.8919 32.0646 98.1158 32.382 99.8371 32.7282C102.17 33.1897 103.738 33.5551 104.542 33.8244C106.875 34.5937 108.701 35.6322 110.021 36.94C111.34 38.2478 112 39.998 112 42.1905C112 45.1907 110.824 47.5082 108.472 49.143C106.119 50.7777 102.954 51.5951 98.9765 51.5951ZM127.515 20.8426C130.04 20.8426 132.335 21.2753 134.4 22.1407C136.465 23.0062 138.091 24.1986 139.277 25.718C140.462 27.2373 141.055 28.9201 141.055 30.7665V50.095C141.055 50.4027 140.96 50.6527 140.768 50.845C140.577 51.0373 140.329 51.1335 140.023 51.1335H132.564C132.258 51.1335 132.009 51.0373 131.818 50.845C131.627 50.6527 131.531 50.4027 131.531 50.095V48.941C131.531 48.7487 131.483 48.6333 131.388 48.5948C131.292 48.5564 131.187 48.6141 131.072 48.7679C129.542 50.6527 127.075 51.5951 123.671 51.5951C120.649 51.5951 118.24 50.8739 116.442 49.4314C114.644 47.989 113.745 45.8639 113.745 43.0559C113.745 40.0941 114.769 37.8055 116.815 36.19C118.861 34.5745 121.816 33.7667 125.679 33.7667H131.13C131.397 33.7667 131.531 33.6321 131.531 33.3628V32.382C131.531 31.3434 131.197 30.5261 130.527 29.9298C129.858 29.3336 128.911 29.0355 127.687 29.0355C126.808 29.0355 126.052 29.1798 125.421 29.4683C124.79 29.7568 124.34 30.151 124.073 30.6511C123.881 30.9203 123.7 31.1223 123.528 31.2569C123.356 31.3915 123.136 31.4396 122.868 31.4011L115.18 30.4203C114.491 30.3433 114.185 30.0741 114.262 29.6125C114.453 27.9585 115.142 26.468 116.327 25.141C117.513 23.814 119.072 22.7658 121.003 21.9965C122.935 21.2272 125.105 20.8426 127.515 20.8426ZM126.54 44.7291C127.993 44.7291 129.189 44.3541 130.126 43.604C131.063 42.854 131.531 41.8635 131.531 40.6326V39.3633C131.531 39.0941 131.397 38.9594 131.13 38.9594H127.802C126.349 38.9594 125.23 39.2095 124.446 39.7095C123.662 40.2095 123.27 40.9596 123.27 41.9597C123.27 42.8059 123.556 43.479 124.13 43.9791C124.704 44.4791 125.507 44.7291 126.54 44.7291ZM161.179 21.2464C161.485 21.2464 161.734 21.3426 161.925 21.5349C162.116 21.7273 162.212 21.9773 162.212 22.285V28.0547C162.212 28.3624 162.116 28.6124 161.925 28.8048C161.734 28.9971 161.485 29.0932 161.179 29.0932H156.245C155.977 29.0932 155.843 29.2279 155.843 29.4971V50.095C155.843 50.4027 155.748 50.6527 155.557 50.845C155.365 51.0373 155.117 51.1335 154.811 51.1335H147.352C147.046 51.1335 146.797 51.0373 146.606 50.845C146.415 50.6527 146.319 50.4027 146.319 50.095V29.4971C146.319 29.2279 146.185 29.0932 145.918 29.0932H143.164C142.858 29.0932 142.609 28.9971 142.418 28.8048C142.227 28.6124 142.131 28.3624 142.131 28.0547V22.285C142.131 21.9773 142.227 21.7273 142.418 21.5349C142.609 21.3426 142.858 21.2464 143.164 21.2464H145.918C146.185 21.2464 146.319 21.1118 146.319 20.8426V19.4001C146.319 17.1307 146.721 15.3517 147.524 14.0632C148.327 12.7746 149.609 11.8707 151.368 11.3514C153.128 10.8321 155.518 10.6302 158.54 10.7456H160.548C160.854 10.7456 161.103 10.8417 161.294 11.0341C161.485 11.2264 161.581 11.4764 161.581 11.7841V16.3422C161.581 16.6499 161.485 16.8999 161.294 17.0923C161.103 17.2846 160.854 17.3807 160.548 17.3807H158.655C157.622 17.4577 156.895 17.7077 156.474 18.1308C156.054 18.5539 155.843 19.2655 155.843 20.2656V20.8426C155.843 21.1118 155.977 21.2464 156.245 21.2464H161.179ZM177.746 43.4598C178.932 43.4598 180.031 43.2771 181.045 42.9117C182.058 42.5463 182.909 42.0558 183.598 41.4404C183.827 41.1712 184.076 41.0365 184.344 41.0365C184.573 41.0365 184.803 41.1712 185.032 41.4404L188.589 45.71C188.819 45.9792 188.934 46.2293 188.934 46.46C188.934 46.7293 188.819 46.9793 188.589 47.2101C187.289 48.5948 185.644 49.6718 183.655 50.4411C181.666 51.2104 179.543 51.5951 177.287 51.5951C174.686 51.5951 172.381 51.1239 170.373 50.1815C168.365 49.2391 166.711 47.9217 165.41 46.2293C163.307 43.5367 162.255 40.1134 162.255 35.9592C162.255 34.1129 162.465 32.382 162.886 30.7665C163.727 27.7662 165.372 25.3526 167.82 23.5255C170.268 21.6984 173.137 20.7849 176.426 20.7849C180.251 20.7849 183.34 21.9773 185.692 24.3621C188.044 26.7469 189.584 30.0741 190.311 34.3437C190.464 35.4207 190.578 36.5938 190.655 37.8632C190.655 38.5556 190.311 38.9017 189.622 38.9017H172.295C172.181 38.9017 172.075 38.9402 171.98 39.0171C171.884 39.0941 171.855 39.2095 171.894 39.3633L172.238 40.5173C172.62 41.4404 173.29 42.1616 174.246 42.6809C175.202 43.2002 176.369 43.4598 177.746 43.4598ZM176.254 29.0355C174.303 29.0355 172.984 29.9779 172.295 31.8627C172.142 32.2473 172.047 32.5358 172.008 32.7282V32.8435C172.008 33.0743 172.142 33.1897 172.41 33.1897H180.27C180.423 33.1897 180.528 33.1417 180.586 33.0455C180.643 32.9493 180.653 32.8435 180.614 32.7282L180.385 31.9781C180.079 31.0549 179.582 30.3337 178.893 29.8145C178.205 29.2952 177.325 29.0355 176.254 29.0355ZM210.721 22.3427C210.721 22.035 210.817 21.785 211.008 21.5926C211.199 21.4003 211.448 21.3041 211.754 21.3041H219.213C219.519 21.3041 219.767 21.4003 219.958 21.5926C220.15 21.785 220.245 22.035 220.245 22.3427V47.7871C220.245 53.0568 218.725 56.8263 215.684 59.0957C212.643 61.3651 208.828 62.4998 204.238 62.4998C202.785 62.4998 201.083 62.3652 199.132 62.0959C198.482 61.9805 198.176 61.5959 198.214 60.942L198.501 54.5376C198.539 53.8068 198.941 53.4991 199.706 53.6145C201.235 53.9222 202.574 54.0761 203.722 54.0761C205.902 54.0761 207.614 53.576 208.857 52.5759C210.1 51.5758 210.721 49.9988 210.721 47.8448L210.09 48.4217C208.751 49.6911 206.839 50.3257 204.353 50.3257C201.828 50.3257 199.514 49.768 197.411 48.6525C195.307 47.5371 193.796 45.5754 192.878 42.7674C192.266 40.9211 191.96 38.6517 191.96 35.9592C191.96 32.9974 192.323 30.5741 193.05 28.6894C193.93 26.3045 195.336 24.4006 197.267 22.9774C199.199 21.5542 201.446 20.8426 204.009 20.8426C206.686 20.8426 208.771 21.6311 210.262 23.2081C210.377 23.362 210.482 23.4197 210.578 23.3812C210.673 23.3428 210.721 23.2274 210.721 23.0351V22.3427ZM210.205 40.2288C210.549 39.3441 210.721 37.9017 210.721 35.9015C210.721 34.8629 210.683 34.0456 210.607 33.4494C210.53 32.8532 210.377 32.2858 210.148 31.7473C209.842 30.9011 209.354 30.2376 208.685 29.7568C208.015 29.2759 207.202 29.0355 206.246 29.0355C204.448 29.0355 203.167 29.9395 202.402 31.7473C201.828 32.8243 201.541 34.2475 201.541 36.0169C201.541 37.9017 201.79 39.2864 202.287 40.1711C202.632 40.9788 203.148 41.6327 203.836 42.1328C204.525 42.6328 205.347 42.8828 206.303 42.8828C208.254 42.8828 209.555 41.9982 210.205 40.2288ZM240.055 22.3723C240.055 22.0646 240.151 21.8146 240.342 21.6223C240.533 21.4299 240.782 21.3338 241.088 21.3338H248.546C248.852 21.3338 249.101 21.4299 249.292 21.6223C249.483 21.8146 249.579 22.0646 249.579 22.3723V50.1246C249.579 50.4323 249.483 50.6823 249.292 50.8747C249.101 51.067 248.852 51.1631 248.546 51.1631H241.088C240.782 51.1631 240.533 51.067 240.342 50.8747C240.151 50.6823 240.055 50.4323 240.055 50.1246V48.6822C240.055 48.4898 240.007 48.3744 239.912 48.336C239.816 48.2975 239.711 48.3552 239.596 48.5091C237.99 50.5862 235.618 51.6247 232.482 51.6247C229.575 51.6247 227.223 50.7016 225.425 48.8553C223.627 47.0089 222.728 44.4318 222.728 41.1238V22.3723C222.728 22.0646 222.824 21.8146 223.015 21.6223C223.206 21.4299 223.455 21.3338 223.761 21.3338H231.22C231.526 21.3338 231.774 21.4299 231.965 21.6223C232.157 21.8146 232.252 22.0646 232.252 22.3723V38.9314C232.252 40.2776 232.597 41.3546 233.285 42.1624C233.973 42.9702 234.911 43.374 236.096 43.374C237.167 43.374 238.057 43.0471 238.764 42.3932C239.472 41.7393 239.902 40.8738 240.055 39.7968V22.3723ZM265.37 20.8426C267.894 20.8426 270.189 21.2753 272.254 22.1407C274.32 23.0062 275.946 24.1986 277.131 25.718C278.317 27.2373 278.91 28.9201 278.91 30.7665V50.095C278.91 50.4027 278.814 50.6527 278.623 50.845C278.432 51.0373 278.183 51.1335 277.877 51.1335H270.419C270.113 51.1335 269.864 51.0373 269.673 50.845C269.481 50.6527 269.386 50.4027 269.386 50.095V48.941C269.386 48.7487 269.338 48.6333 269.242 48.5948C269.147 48.5564 269.042 48.6141 268.927 48.7679C267.397 50.6527 264.93 51.5951 261.526 51.5951C258.504 51.5951 256.094 50.8739 254.297 49.4314C252.499 47.989 251.6 45.8639 251.6 43.0559C251.6 40.0941 252.623 37.8055 254.669 36.19C256.716 34.5745 259.671 33.7667 263.534 33.7667H268.984C269.252 33.7667 269.386 33.6321 269.386 33.3628V32.382C269.386 31.3434 269.051 30.5261 268.382 29.9298C267.712 29.3336 266.766 29.0355 265.542 29.0355C264.662 29.0355 263.907 29.1798 263.276 29.4683C262.644 29.7568 262.195 30.151 261.927 30.6511C261.736 30.9203 261.554 31.1223 261.382 31.2569C261.21 31.3915 260.99 31.4396 260.722 31.4011L253.034 30.4203C252.346 30.3433 252.04 30.0741 252.116 29.6125C252.308 27.9585 252.996 26.468 254.182 25.141C255.368 23.814 256.926 22.7658 258.858 21.9965C260.789 21.2272 262.96 20.8426 265.37 20.8426ZM264.394 44.7291C265.848 44.7291 267.043 44.3541 267.98 43.604C268.917 42.854 269.386 41.8635 269.386 40.6326V39.3633C269.386 39.0941 269.252 38.9594 268.984 38.9594H265.657C264.203 38.9594 263.084 39.2095 262.3 39.7095C261.516 40.2095 261.124 40.9596 261.124 41.9597C261.124 42.8059 261.411 43.479 261.985 43.9791C262.558 44.4791 263.362 44.7291 264.394 44.7291ZM296.413 20.9003C297.637 20.9003 298.632 21.1118 299.397 21.5349C299.894 21.8042 300.085 22.2273 299.971 22.8043L298.708 30.1895C298.67 30.6895 298.422 30.9395 297.963 30.9395C297.771 30.9395 297.618 30.9203 297.504 30.8818C297.045 30.7665 296.471 30.7088 295.782 30.7088C295.17 30.7088 294.711 30.7472 294.405 30.8242C293.22 30.978 292.216 31.4396 291.393 32.2089C290.571 32.9782 290.16 33.9975 290.16 35.2668V50.095C290.16 50.4027 290.064 50.6527 289.873 50.845C289.682 51.0373 289.433 51.1335 289.127 51.1335H281.668C281.362 51.1335 281.114 51.0373 280.923 50.845C280.731 50.6527 280.636 50.4027 280.636 50.095V22.3427C280.636 22.035 280.731 21.785 280.923 21.5926C281.114 21.4003 281.362 21.3041 281.668 21.3041H289.127C289.433 21.3041 289.682 21.4003 289.873 21.5926C290.064 21.785 290.16 22.035 290.16 22.3427V23.612C290.16 23.8043 290.208 23.9197 290.303 23.9582C290.399 23.9967 290.485 23.939 290.561 23.7851C292.091 21.8619 294.042 20.9003 296.413 20.9003ZM318.641 11.7841C318.641 11.4764 318.737 11.2264 318.928 11.0341C319.119 10.8417 319.368 10.7456 319.674 10.7456H327.132C327.438 10.7456 327.687 10.8417 327.878 11.0341C328.069 11.2264 328.165 11.4764 328.165 11.7841V50.095C328.165 50.4027 328.069 50.6527 327.878 50.845C327.687 51.0373 327.438 51.1335 327.132 51.1335H319.674C319.368 51.1335 319.119 51.0373 318.928 50.845C318.737 50.6527 318.641 50.4027 318.641 50.095V48.7102C318.641 48.5179 318.593 48.4025 318.498 48.3641C318.402 48.3256 318.297 48.3833 318.182 48.5371C316.729 50.5758 314.548 51.5951 311.642 51.5951C309.155 51.5951 306.86 50.7681 304.757 49.1141C302.653 47.4601 301.219 45.3254 300.454 42.7097C299.842 40.825 299.536 38.6133 299.536 36.0746C299.536 33.3436 299.937 30.9203 300.741 28.8048C301.62 26.4199 303.045 24.4871 305.015 23.0062C306.985 21.5253 309.194 20.7849 311.642 20.7849C314.548 20.7849 316.729 21.6695 318.182 23.4389C318.297 23.5928 318.402 23.6505 318.498 23.612C318.593 23.5736 318.641 23.4582 318.641 23.2658V11.7841ZM317.608 40.9788C318.259 39.748 318.584 38.1709 318.584 36.2477C318.584 34.1321 318.239 32.4397 317.551 31.1703C316.748 29.8625 315.639 29.2086 314.223 29.2086C312.732 29.2086 311.584 29.8818 310.781 31.228C310.092 32.4974 309.748 34.1706 309.748 36.2477C309.748 38.2094 310.073 39.8057 310.724 41.0365C311.527 42.4597 312.693 43.1713 314.223 43.1713C315.677 43.1713 316.805 42.4405 317.608 40.9788Z" fill="black"/>
<path d="M339.742 12.5C340.899 12.5 341.957 12.7722 342.918 13.3166C343.878 13.861 344.632 14.599 345.179 15.5308C345.727 16.4625 346 17.5042 346 18.6558C346 19.8493 345.727 20.9275 345.179 21.8907C344.632 22.8539 343.878 23.6129 342.918 24.1677C341.957 24.7226 340.899 25 339.742 25C338.586 25 337.533 24.7226 336.583 24.1677C335.633 23.6129 334.884 22.8539 334.337 21.8907C333.789 20.9275 333.516 19.8493 333.516 18.6558C333.516 17.5042 333.789 16.4625 334.337 15.5308C334.884 14.599 335.633 13.861 336.583 13.3166C337.533 12.7722 338.586 12.5 339.742 12.5ZM339.742 23.4925C340.63 23.4925 341.436 23.2831 342.159 22.8643C342.882 22.4456 343.45 21.8645 343.863 21.1212C344.276 20.3779 344.482 19.5561 344.482 18.6558C344.482 17.7973 344.276 17.0069 343.863 16.2845C343.45 15.5622 342.882 14.9969 342.159 14.5886C341.436 14.1803 340.63 13.9761 339.742 13.9761C338.875 13.9761 338.085 14.1803 337.373 14.5886C336.66 14.9969 336.097 15.5622 335.684 16.2845C335.271 17.0069 335.065 17.7973 335.065 18.6558C335.065 19.5561 335.271 20.3779 335.684 21.1212C336.097 21.8645 336.66 22.4456 337.373 22.8643C338.085 23.2831 338.875 23.4925 339.742 23.4925ZM341.88 17.6193C341.88 18.2894 341.632 18.7709 341.136 19.0641C341.054 19.1269 341.023 19.2106 341.044 19.3153L341.663 21.0113C341.684 21.0741 341.694 21.1474 341.694 21.2312C341.694 21.4615 341.55 21.5766 341.26 21.5766H340.951C340.682 21.5766 340.496 21.4405 340.393 21.1683L339.804 19.4724C339.784 19.3677 339.711 19.3153 339.588 19.3153H339.464C339.34 19.3153 339.278 19.3781 339.278 19.5038V21.0741C339.278 21.4091 339.112 21.5766 338.782 21.5766H338.503C338.173 21.5766 338.008 21.4091 338.008 21.0741V16.3317C338.008 15.9966 338.173 15.8291 338.503 15.8291H340.114C340.63 15.8291 341.054 16.0019 341.384 16.3474C341.715 16.6928 341.88 17.1168 341.88 17.6193ZM339.464 16.9284C339.34 16.9284 339.278 16.9912 339.278 17.1168V18.1533C339.278 18.2789 339.34 18.3417 339.464 18.3417H339.928C340.135 18.3417 340.3 18.2737 340.424 18.1376C340.548 18.0015 340.61 17.8392 340.61 17.6508C340.61 17.4414 340.548 17.2686 340.424 17.1325C340.3 16.9964 340.135 16.9284 339.928 16.9284H339.464Z" fill="black"/>
<path fill-rule="evenodd" clip-rule="evenodd" d="M36.3413 2.92599L63.62 18.4172C64.9643 19.1806 65.7937 20.5998 65.7937 22.1367V53.0545C65.7937 54.5915 64.9643 56.0107 63.62 56.7741L36.3413 72.2653C35.012 73.0201 33.3794 73.0201 32.0501 72.2653L4.77143 56.7741C3.42708 56.0107 2.59766 54.5915 2.59766 53.0545V22.1367C2.59766 20.5998 3.42708 19.1806 4.77143 18.4172L32.0501 2.92599C33.3794 2.17115 35.012 2.17115 36.3413 2.92599Z" stroke="black" stroke-width="1.8"/>
<path d="M54.1067 24.2727L38.4292 15.5011C37.1569 14.7891 35.5663 15.679 35.5663 17.1031V31.0319C35.5663 31.0319 35.5514 31.194 35.7108 31.352C35.8359 31.4761 36.0241 31.4758 36.0241 31.4758H42.0612C42.0612 31.4758 42.2559 31.4779 42.3926 31.3308C42.5254 31.1878 42.5192 31.0321 42.5192 31.0321V26.3038C42.5192 25.8455 43.0118 25.5436 43.439 25.7399L55.3973 31.2364C55.6538 31.3543 55.9495 31.173 55.9495 30.8979V27.3659C55.9495 26.0899 55.2472 24.9107 54.1067 24.2727Z" fill="black"/>
<path d="M54.7164 34.721H42.519H41.1929H27.8027H19.9726C19.3953 34.721 18.9271 34.2673 18.9271 33.7076V29.4419C18.9271 28.8632 19.271 28.336 19.8108 28.0879L24.9623 25.7201C25.3695 25.533 25.8392 25.8207 25.8392 26.2577V31.032C25.8392 31.2771 26.0441 31.4757 26.2972 31.4757H32.334C32.5871 31.4757 32.792 31.2771 32.792 31.032V17.103C32.792 15.679 31.2014 14.789 29.9289 15.5012L14.2516 24.2726C13.1112 24.9108 12.4087 26.0898 12.4087 27.3659V39.2445C12.4087 39.7983 12.8722 40.2475 13.4437 40.2475H24.7934C24.8446 40.2475 24.8944 40.2522 24.9436 40.2589H27.8027H41.1929H43.204C43.2431 40.2533 43.2825 40.2473 43.3233 40.2473H48.6265C49.0709 40.2473 49.4311 40.5963 49.4311 41.0269V45.5322C49.4311 46.1076 49.0891 46.6314 48.5528 46.878L43.4388 49.2284C43.0116 49.4249 42.519 49.1228 42.519 48.6647V43.9219C42.519 43.9219 42.5308 43.7599 42.3942 43.6137C42.2628 43.4732 42.0561 43.4758 42.0561 43.4758H36.0239C36.0239 43.4758 35.8055 43.4673 35.6734 43.6054C35.5575 43.7268 35.5661 43.9219 35.5661 43.9219V57.8653C35.5661 59.2893 37.1567 60.1793 38.429 59.4673L54.1065 50.6957C55.2468 50.0577 55.9493 48.8785 55.9493 47.6024V35.9157C55.9493 35.2559 55.3974 34.721 54.7164 34.721Z" fill="black"/>
<path d="M32.334 43.4784H26.2939C26.2939 43.4784 26.137 43.4565 25.9696 43.5974C25.8186 43.7241 25.8392 43.9222 25.8392 43.9222V48.7109C25.8392 49.1477 25.3695 49.4356 24.9623 49.2483L19.8107 46.8806C19.271 46.6326 18.9271 46.1054 18.9271 45.5265V43.9222C18.9271 43.677 18.7219 43.4784 18.4691 43.4784H12.8667C12.6138 43.4784 12.4087 43.677 12.4087 43.9222V47.6027V48.0898H12.4435C12.5972 49.1734 13.258 50.14 14.2516 50.696L29.9289 59.4675C31.2014 60.1794 32.792 59.2896 32.792 57.8656V43.9222C32.792 43.9222 32.8097 43.6994 32.6731 43.5779C32.5379 43.4579 32.334 43.4784 32.334 43.4784Z" fill="black"/>
</svg>
