<svg width="25" height="25" viewBox="0 0 25 25" fill="none" xmlns="http://www.w3.org/2000/svg">
<g clip-path="url(#clip0_72_528)">
<path d="M24.552 5.12676C23.6848 5.51099 22.7533 5.7706 21.7741 5.88795C22.7845 5.28335 23.5404 4.33178 23.9008 3.2108C22.9515 3.77467 21.9126 4.17158 20.8291 4.38426C20.1005 3.60631 19.1354 3.09067 18.0837 2.9174C17.032 2.74413 15.9526 2.92293 15.0129 3.42602C14.0732 3.92911 13.326 4.72836 12.8871 5.69968C12.4482 6.671 12.3423 7.76004 12.5858 8.79772C10.6622 8.70114 8.78046 8.20117 7.06264 7.33027C5.34481 6.45937 3.8293 5.237 2.61446 3.74249C2.19908 4.45903 1.96023 5.2898 1.96023 6.17457C1.95977 6.97106 2.15591 7.75536 2.53126 8.45786C2.90661 9.16037 3.44955 9.75937 4.11193 10.2017C3.34375 10.1773 2.59252 9.96971 1.92077 9.5963V9.6586C1.92069 10.7757 2.30711 11.8585 3.01446 12.7231C3.72181 13.5877 4.70652 14.181 5.8015 14.4023C5.08889 14.5952 4.34178 14.6236 3.61658 14.4854C3.92552 15.4466 4.52731 16.2871 5.33769 16.8893C6.14808 17.4915 7.12649 17.8253 8.13596 17.8438C6.42233 19.189 4.306 19.9187 2.12743 19.9155C1.74151 19.9156 1.35593 19.8931 0.972656 19.848C3.18404 21.2698 5.75824 22.0244 8.38727 22.0215C17.2869 22.0215 22.1521 14.6505 22.1521 8.25772C22.1521 8.05003 22.1469 7.84026 22.1375 7.63256C23.0839 6.94819 23.9008 6.10073 24.5499 5.12987L24.552 5.12676V5.12676Z" fill="black"/>
</g>
<defs>
<clipPath id="clip0_72_528">
<rect width="24.9231" height="24.9231" fill="white" transform="translate(0 -0.000244141)"/>
</clipPath>
</defs>
</svg>
