<svg width="24" height="23" viewBox="0 0 24 23" fill="none" xmlns="http://www.w3.org/2000/svg">
<path fill-rule="evenodd" clip-rule="evenodd" d="M9.62609 8.27887H13.0544V9.98656C13.5482 9.00441 14.8147 8.12195 16.7172 8.12195C20.3642 8.12195 21.2301 10.077 21.2301 13.6641V20.3075H17.5378V14.481C17.5378 12.4383 17.0439 11.2863 15.7867 11.2863C14.043 11.2863 13.3184 12.5278 13.3184 14.4801V20.3075H9.62609V8.27887ZM3.29471 20.1506H6.98702V8.12195H3.29471V20.1506ZM7.51594 4.19979C7.51608 4.50928 7.4547 4.8157 7.33537 5.10126C7.21605 5.38681 7.04116 5.64581 6.82086 5.86318C6.37446 6.30683 5.77023 6.55517 5.14086 6.55364C4.51261 6.55322 3.90976 6.30552 3.46271 5.8641C3.24321 5.64599 3.06891 5.38671 2.94979 5.10111C2.83068 4.81552 2.76909 4.50923 2.76855 4.19979C2.76855 3.57487 3.01779 2.97672 3.46363 2.53549C3.91029 2.09348 4.51339 1.84567 5.14179 1.84595C5.77132 1.84595 6.37502 2.09426 6.82086 2.53549C7.26579 2.97672 7.51594 3.57487 7.51594 4.19979Z" fill="black"/>
</svg>
