<svg width="24" height="24" viewBox="0 0 24 24" fill="none" xmlns="http://www.w3.org/2000/svg">
<path d="M10.9979 2.9834C8.3408 2.9834 5.79251 4.03893 3.91365 5.9178C2.03478 7.79666 0.979248 10.345 0.979248 13.0021C0.979248 15.6592 2.03478 18.2075 3.91365 20.0863C5.79251 21.9652 8.3408 23.0207 10.9979 23.0207C13.655 23.0207 16.2033 21.9652 18.0822 20.0863C19.961 18.2075 21.0166 15.6592 21.0166 13.0021C21.0166 10.345 19.961 7.79666 18.0822 5.9178C16.2033 4.03893 13.655 2.9834 10.9979 2.9834ZM10.9979 19.5086C9.27171 19.5086 7.6162 18.8228 6.39559 17.6022C5.17498 16.3816 4.48925 14.7261 4.48925 12.9999C4.48925 11.2737 5.17498 9.61819 6.39559 8.39758C7.6162 7.17697 9.27171 6.49123 10.9979 6.49123C12.7241 6.49123 14.3796 7.17697 15.6002 8.39758C16.8208 9.61819 17.5066 11.2737 17.5066 12.9999C17.5066 14.7261 16.8208 16.3816 15.6002 17.6022C14.3796 18.8228 12.7241 19.5086 10.9979 19.5086Z" fill="black"/>
<path d="M21.4131 4.95063C22.703 4.95063 23.7487 3.90492 23.7487 2.61496C23.7487 1.32501 22.703 0.279297 21.4131 0.279297C20.1231 0.279297 19.0774 1.32501 19.0774 2.61496C19.0774 3.90492 20.1231 4.95063 21.4131 4.95063Z" fill="white"/>
</svg>
