<svg width="234" height="34" viewBox="0 0 234 34" fill="none" xmlns="http://www.w3.org/2000/svg">
<path d="M5.32 33V5.92H0.44V0.599998H17.36V5.92H12.52V33H5.32ZM20.2125 33V0.599998H29.1325C31.3192 0.599998 33.2125 0.839998 34.8125 1.32C36.4125 1.8 37.6525 2.66666 38.5325 3.92C39.4392 5.14666 39.8925 6.89333 39.8925 9.16C39.8925 10.4933 39.7858 11.68 39.5725 12.72C39.3592 13.76 38.9592 14.6667 38.3725 15.44C37.8125 16.1867 36.9992 16.8133 35.9325 17.32L40.3725 33H32.9725L29.4125 18.48H27.3725V33H20.2125ZM27.3725 14.36H29.3725C30.3858 14.36 31.1725 14.1867 31.7325 13.84C32.2925 13.4667 32.6792 12.9467 32.8925 12.28C33.1325 11.5867 33.2525 10.76 33.2525 9.8C33.2525 8.41333 32.9992 7.33333 32.4925 6.56C31.9858 5.78666 31.0525 5.4 29.6925 5.4H27.3725V14.36ZM44.2369 33V0.599998H51.3969V33H44.2369ZM56.2281 33V0.599998H64.6681C66.0548 0.599998 67.3615 0.706664 68.5881 0.919998C69.8415 1.13333 70.9481 1.54667 71.9081 2.16C72.8681 2.74667 73.6148 3.6 74.1481 4.72C74.7081 5.81333 74.9881 7.26667 74.9881 9.08C74.9881 10.3867 74.7881 11.4933 74.3881 12.4C74.0148 13.28 73.4681 13.9867 72.7481 14.52C72.0548 15.0533 71.2148 15.4133 70.2281 15.6C71.4815 15.76 72.5348 16.1733 73.3881 16.84C74.2415 17.48 74.8815 18.3467 75.3081 19.44C75.7615 20.5333 75.9881 21.8533 75.9881 23.4C75.9881 25.08 75.7615 26.5333 75.3081 27.76C74.8815 28.96 74.2548 29.9467 73.4281 30.72C72.6015 31.4933 71.5748 32.0667 70.3481 32.44C69.1481 32.8133 67.7615 33 66.1881 33H56.2281ZM63.3881 28H64.9081C66.4815 28 67.5615 27.6 68.1481 26.8C68.7615 26 69.0681 24.8267 69.0681 23.28C69.0681 22.0533 68.9348 21.08 68.6681 20.36C68.4015 19.64 67.9615 19.12 67.3481 18.8C66.7348 18.4533 65.9081 18.28 64.8681 18.28H63.3881V28ZM63.3881 13.56H64.7881C65.8815 13.56 66.7081 13.4 67.2681 13.08C67.8281 12.7333 68.2015 12.24 68.3881 11.6C68.6015 10.96 68.7081 10.1867 68.7081 9.28C68.7081 8.42667 68.5481 7.72 68.2281 7.16C67.9348 6.57333 67.4815 6.13333 66.8681 5.84C66.2815 5.54666 65.5348 5.4 64.6281 5.4H63.3881V13.56ZM78.1056 33L84.2256 0.599998H92.3856L98.4256 33H91.8256L90.7456 26.16H85.9856L84.8656 33H78.1056ZM86.6256 21.88H90.0656L88.3456 9.24L86.6256 21.88ZM101.697 33V0.599998H108.857V28.16H116.297V33H101.697ZM138.946 33.48C136.492 33.48 134.546 33.04 133.106 32.16C131.692 31.2533 130.692 30 130.106 28.4C129.519 26.7733 129.226 24.8667 129.226 22.68V11C129.226 8.76 129.519 6.84 130.106 5.24C130.692 3.61333 131.692 2.36 133.106 1.48C134.546 0.599998 136.492 0.159998 138.946 0.159998C141.346 0.159998 143.212 0.559999 144.546 1.36C145.906 2.13333 146.866 3.22667 147.426 4.64C147.986 6.05333 148.266 7.68 148.266 9.52V12.32H141.266V9.08C141.266 8.44 141.226 7.82666 141.146 7.24C141.092 6.65333 140.906 6.17333 140.586 5.8C140.266 5.4 139.719 5.2 138.946 5.2C138.199 5.2 137.639 5.4 137.266 5.8C136.919 6.2 136.692 6.70667 136.586 7.32C136.506 7.90667 136.466 8.53333 136.466 9.2V24.44C136.466 25.16 136.519 25.8267 136.626 26.44C136.759 27.0267 136.999 27.5067 137.346 27.88C137.719 28.2267 138.252 28.4 138.946 28.4C139.692 28.4 140.226 28.2133 140.546 27.84C140.866 27.44 141.066 26.9333 141.146 26.32C141.226 25.7067 141.266 25.08 141.266 24.44V21.04H148.266V23.84C148.266 25.68 147.986 27.3333 147.426 28.8C146.892 30.24 145.946 31.3867 144.586 32.24C143.252 33.0667 141.372 33.48 138.946 33.48ZM156.128 33V19.76L149.968 0.599998H156.728L159.808 10.84L162.568 0.599998H169.048L163.008 19.76V33H156.128ZM171.775 33V0.599998H180.215C181.602 0.599998 182.908 0.706664 184.135 0.919998C185.388 1.13333 186.495 1.54667 187.455 2.16C188.415 2.74667 189.162 3.6 189.695 4.72C190.255 5.81333 190.535 7.26667 190.535 9.08C190.535 10.3867 190.335 11.4933 189.935 12.4C189.562 13.28 189.015 13.9867 188.295 14.52C187.602 15.0533 186.762 15.4133 185.775 15.6C187.028 15.76 188.082 16.1733 188.935 16.84C189.788 17.48 190.428 18.3467 190.855 19.44C191.308 20.5333 191.535 21.8533 191.535 23.4C191.535 25.08 191.308 26.5333 190.855 27.76C190.428 28.96 189.802 29.9467 188.975 30.72C188.148 31.4933 187.122 32.0667 185.895 32.44C184.695 32.8133 183.308 33 181.735 33H171.775ZM178.935 28H180.455C182.028 28 183.108 27.6 183.695 26.8C184.308 26 184.615 24.8267 184.615 23.28C184.615 22.0533 184.482 21.08 184.215 20.36C183.948 19.64 183.508 19.12 182.895 18.8C182.282 18.4533 181.455 18.28 180.415 18.28H178.935V28ZM178.935 13.56H180.335C181.428 13.56 182.255 13.4 182.815 13.08C183.375 12.7333 183.748 12.24 183.935 11.6C184.148 10.96 184.255 10.1867 184.255 9.28C184.255 8.42667 184.095 7.72 183.775 7.16C183.482 6.57333 183.028 6.13333 182.415 5.84C181.828 5.54666 181.082 5.4 180.175 5.4H178.935V13.56ZM195.291 33V0.599998H209.851V5.48H202.451V13.52H208.091V18.48H202.451V28.16H209.931V33H195.291ZM213.181 33V0.599998H222.101C224.288 0.599998 226.181 0.839998 227.781 1.32C229.381 1.8 230.621 2.66666 231.501 3.92C232.408 5.14666 232.861 6.89333 232.861 9.16C232.861 10.4933 232.755 11.68 232.541 12.72C232.328 13.76 231.928 14.6667 231.341 15.44C230.781 16.1867 229.968 16.8133 228.901 17.32L233.341 33H225.941L222.381 18.48H220.341V33H213.181ZM220.341 14.36H222.341C223.355 14.36 224.141 14.1867 224.701 13.84C225.261 13.4667 225.648 12.9467 225.861 12.28C226.101 11.5867 226.221 10.76 226.221 9.8C226.221 8.41333 225.968 7.33333 225.461 6.56C224.955 5.78666 224.021 5.4 222.661 5.4H220.341V14.36Z" fill="white"/>
</svg>
